<svg width="24" height="25" viewBox="0 0 24 25" fill="none" xmlns="http://www.w3.org/2000/svg">
<g clip-path="url(#clip0_218_10537)">
<g filter="url(#filter0_d_218_10537)">
<path fill-rule="evenodd" clip-rule="evenodd" d="M14.897 3.3421C15.311 3.3421 15.647 3.6781 15.647 4.0921C15.647 4.5061 15.311 4.8421 14.897 4.8421H7.629C5.121 4.8421 3.5 6.5661 3.5 9.2361V17.3181C3.5 20.0231 5.082 21.7031 7.629 21.7031H16.233C18.741 21.7031 20.362 19.9821 20.362 17.3181V10.2791C20.362 9.8651 20.698 9.5291 21.112 9.5291C21.526 9.5291 21.862 9.8651 21.862 10.2791V17.3181C21.862 20.8381 19.6 23.2031 16.233 23.2031H7.629C4.262 23.2031 2 20.8381 2 17.3181V9.2361C2 5.7111 4.262 3.3421 7.629 3.3421H14.897ZM17.0124 10.1719C17.3404 10.4259 17.4004 10.8969 17.1464 11.2239L14.2164 15.0039C14.0944 15.1619 13.9144 15.2649 13.7164 15.2889C13.5164 15.3159 13.3184 15.2579 13.1604 15.1349L10.3424 12.9209L7.8114 16.2099C7.6634 16.4019 7.4414 16.5029 7.2164 16.5029C7.0564 16.5029 6.8954 16.4519 6.7594 16.3479C6.4314 16.0949 6.3694 15.6239 6.6224 15.2959L9.6154 11.4059C9.7374 11.2469 9.9184 11.1439 10.1164 11.1189C10.3184 11.0929 10.5164 11.1489 10.6734 11.2739L13.4934 13.4889L15.9604 10.3059C16.2144 9.9769 16.6844 9.9159 17.0124 10.1719ZM19.9674 2.5C21.4414 2.5 22.6394 3.698 22.6394 5.172C22.6394 6.646 21.4414 7.845 19.9674 7.845C18.4944 7.845 17.2954 6.646 17.2954 5.172C17.2954 3.698 18.4944 2.5 19.9674 2.5ZM19.9674 4C19.3214 4 18.7954 4.525 18.7954 5.172C18.7954 5.818 19.3214 6.345 19.9674 6.345C20.6134 6.345 21.1394 5.818 21.1394 5.172C21.1394 4.525 20.6134 4 19.9674 4Z" fill="black"/>
</g>
</g>
<defs>
<filter id="filter0_d_218_10537" x="-2" y="2.5" width="28.6394" height="28.7031" filterUnits="userSpaceOnUse" color-interpolation-filters="sRGB">
<feFlood flood-opacity="0" result="BackgroundImageFix"/>
<feColorMatrix in="SourceAlpha" type="matrix" values="0 0 0 0 0 0 0 0 0 0 0 0 0 0 0 0 0 0 127 0" result="hardAlpha"/>
<feOffset dy="4"/>
<feGaussianBlur stdDeviation="2"/>
<feComposite in2="hardAlpha" operator="out"/>
<feColorMatrix type="matrix" values="0 0 0 0 0 0 0 0 0 0 0 0 0 0 0 0 0 0 0.25 0"/>
<feBlend mode="normal" in2="BackgroundImageFix" result="effect1_dropShadow_218_10537"/>
<feBlend mode="normal" in="SourceGraphic" in2="effect1_dropShadow_218_10537" result="shape"/>
</filter>
<clipPath id="clip0_218_10537">
<rect width="24" height="24" fill="white" transform="translate(0 0.5)"/>
</clipPath>
</defs>
</svg>
